<svg xmlns="http://www.w3.org/2000/svg" width="1867.562" height="510.56" viewBox="0 0 1867.562 510.56">
  <defs>
    <style>
      .cls-1 {
        fill: #180c87;
        fill-rule: evenodd;
      }
    </style>
  </defs>
  <path id="Color_Fill_1" data-name="Color Fill 1" class="cls-1" d="M665,1068q17.5,5.505,35,11v1c1.333,0.33,2.667.67,4,1v1h3v1c1.333,0.33,2.667.67,4,1v1h3q14.5,7.995,29,16c0.333,0.67.667,1.33,1,2h2c0.333,0.67.667,1.33,1,2,1,0.33,2,.67,3,1l2,3h2l5,6h2c1,1.33,2,2.67,3,4h1v2c2,1.67,4,3.33,6,5v2c1,0.67,2,1.33,3,2,0.333,1.33.667,2.67,1,4,0.667,0.33,1.333.67,2,1v2c5.039,8.98,7.026,14.6,7,29v8h-1v5h-1v3h-1v2h-1l-3,9c-0.667.33-1.333,0.67-2,1-0.333,1.33-.667,2.67-1,4-1,.67-2,1.33-3,2v2c-1.667,1.33-3.333,2.67-5,4v2c-0.667.33-1.333,0.67-2,1-1.333,1.67-2.667,3.33-4,5h-2l-5,6h-2l-2,3h-2c-0.333.67-.667,1.33-1,2-1,.33-2,0.67-3,1v1h-2c-0.333.67-.667,1.33-1,2-1,.33-2,0.67-3,1v1c-2,.67-4,1.33-6,2-0.333.67-.667,1.33-1,2-2,.67-4,1.33-6,2v1h-2v1h-2v1c-2,.67-4,1.33-6,2v1h-3v1h-2v1c-1.333.33-2.667,0.67-4,1v1h-3v1h-2v1h-3v1h-2v1l-30,9c0.094,5.5,1.71,9.07,3,13v5h1v6h1v5h1v6h1v7h1v8h1v12h1c1.343,4.58-.058,17.83-1,21v9a63.079,63.079,0,0,1-2,9v5c-8.986,27.78-17.726,44.27-46,53-4.317,1.33-25.961-.04-29-1h-5v-1h-3v-1q-5-1.005-10-2-14-7.005-28-14c-0.333-.67-0.667-1.33-1-2-1.333-.33-2.667-0.67-4-1l-2-3h-2v-1c-1-.33-2-0.67-3-1-0.333-.67-0.667-1.33-1-2h-2c-0.333-.67-0.667-1.33-1-2-1-.33-2-0.67-3-1l-2-3h-2c-1-1.33-2-2.67-3-4h-2c-1-1.33-2-2.67-3-4h-2c-1.333-1.67-2.667-3.33-4-5-1-.33-2-0.67-3-1q-3.5-4.005-7-8c-1.687-1.68-5.477-5.4-7-4-2,1.67-4,3.33-6,5v1h-2q-3.5,4.005-7,8h-2l-5,6h-2c-1,1.33-2,2.67-3,4h-2l-2,3h-2l-2,3h-2l-2,3h-2c-0.333.67-.667,1.33-1,2h-2c-0.333.67-.667,1.33-1,2h-2c-0.333.67-.667,1.33-1,2h-2c-0.333.67-.667,1.33-1,2-1.333.33-2.667,0.67-4,1-0.333.67-.667,1.33-1,2h-2v1h-2v1h-2v1h-2v1h-2c-0.333.67-.667,1.33-1,2l-23,9c-5,1.77-12.469,2-19,2H369v-1c-3-.67-6-1.33-9-2v-1h-2v-1c-2-.67-4-1.33-6-2-0.333-.67-0.667-1.33-1-2h-2c-1.333-1.67-2.667-3.33-4-5h-2c-0.333-.67-0.667-1.33-1-2h-1v-2l-4-3v-2c-0.667-.33-1.333-0.67-2-1-0.333-1.33-.667-2.67-1-4-0.667-.33-1.333-0.67-2-1l-3-9h-1v-2h-1q-0.5-3-1-6h-1v-4h-1v-5h-1v-5h-1v-8c-1.94-6.94-1-18.38-1-27v-10h1v-10h1v-7h1v-6h1v-6h1v-6h1v-5c1.432-4.48,2.866-7.66,3-14l-30-9v-1c-1.333-.33-2.667-0.67-4-1v-1h-3v-1h-2v-1h-3v-1c-1.333-.33-2.667-0.67-4-1v-1h-3v-1c-2-.67-4-1.33-6-2v-1h-2v-1c-1.333-.33-2.667-0.67-4-1-0.333-.67-0.667-1.33-1-2h-2v-1h-2v-1h-2v-1h-2c-0.333-.67-0.667-1.33-1-2h-2v-1h-2c-0.333-.67-0.667-1.33-1-2h-2l-2-3h-2c-0.333-.67-0.667-1.33-1-2h-2l-2-3h-2c-1.333-1.67-2.667-3.33-4-5-4.874-4.87-11.049-9.3-15-15v-2c-0.667-.33-1.333-0.67-2-1-0.333-1.33-.667-2.67-1-4-0.667-.33-1.333-0.67-2-1v-3h-1c-0.333-1.33-.667-2.67-1-4h-1v-3h-1v-3h-1v-5h-1c-1.305-4.52-.1-18.69,1-22h1v-4h1v-3h1c0.333-1.33.667-2.67,1-4h1v-3c0.667-.33,1.333-0.67,2-1,0.333-1.33.667-2.67,1-4,0.667-.33,1.333-0.67,2-1v-2c1-.67,2-1.33,3-2v-2l10-9,5-6h2l2-3h2l2-3h2c0.333-.67.667-1.33,1-2,1-.33,2-0.67,3-1v-1h2c0.333-.67.667-1.33,1-2h2v-1h2c0.333-.67.667-1.33,1-2,2-.67,4-1.33,6-2,0.333-.67.667-1.33,1-2,1.333-.33,2.667-0.67,4-1v-1c2-.67,4-1.33,6-2v-1h3v-1h2v-1c1.333-.33,2.667-0.67,4-1v-1h3v-1h2v-1h3v-1h2v-1h3v-1h2v-1q13.5-4.005,27-8c-0.113-6.34-1.589-9.52-3-14v-5h-1q-0.5-5.505-1-11h-1v-7h-1v-7h-1v-10h-1v-11c0-8.312-.884-19.361,1-26v-8h1v-5h1v-5h1v-4c8.324-23.373,20.429-38.734,45-46h26l17,4v1l6,1v1l6,2v1h2v1h2v1h2v1h2v1h2v1h2v1h2v1h2l1,2,4,1,1,2h2l1,2h2l1,2h2l1,2h2l1,2,3,1,2,3h2l1,2h1l1,2h2l3,4h2l4,5h2l8,9h2v1c2.289,1.921,3.725,4.079,7,5l11-12h2l6-7,3-1,2-3h2l3-4h2l2-3h2l2-3h2q0.5-1,1-2h2q0.5-1,1-2h2q0.5-1,1-2h2q0.5-1,1-2h2q0.5-1,1-2l4-1q0.5-1,1-2l6-2v-1h2v-1h2v-1h2v-1l6-2v-1h3v-1h2v-1l10-2v-1h3v-1l17-1h17v1l7,1v1l4,1v1h3v1l3,1q0.5,1,1,2h2l3,4h2q0.5,1,1,2l4,3v2l2,1v2l3,2q0.5,2,1,4l2,1q0.5,2.5,1,5h1q0.5,2,1,4h1v4h1v3h1v3h1v4h1v5h1q0.5,9,1,18h1c1.333,4.757-.061,17.67-1,21q-0.5,10-1,20h-1v7h-1v6h-1v5h-1v6C667.339,1055.5,665.231,1061.14,665,1068ZM362,940c-0.915,3.312-3.1,4.659-5,7h-1l-1,4h-1l-2,6h-1v3h-1v3h-1v5h-1v5h-1q-0.5,11.5-1,23c0,11.01.513,22.34,3,31l1,13c1.885,6.3,4.306,13.74,5,21,6.76-.07,14.448-2.33,20-4h6v-1h5v-1h6v-1h7c8.967-2.65,20.882-3.8,32-4,1-1.33,2-2.67,3-4h1v-2c0.667-.33,1.333-0.67,2-1v-2c1-.67,2-1.33,3-2v-2c1-.67,2-1.33,3-2v-2c1-.67,2-1.33,3-2v-2c1-.67,2-1.33,3-2v-2c0.667-.33,1.333-0.67,2-1v-1c0.667-.33,1.333-0.67,2-1v-2l4-3v-2c1-.67,2-1.33,3-2v-1c0.667-.33,1.333-0.67,2-1v-2c2-1.67,4-3.33,6-5v-2c1-.67,2-1.33,3-2l9-11-7-6-1-2h-2l-6-7h-2l-4-5h-2l-3-4h-2l-2-3-3-1-1-2h-2l-1-2h-2l-2-3h-2l-1-2-4-1-1-2-4-1-1-2-4-1v-1l-6-2v-1h-3v-1l-4-1v-1h-3v-1h-3v-1h-4v-1h-4v-1h-7v-1h-6v1h-7v1h-3v1h-3l-1,2h-2v1Zm278,121a96.237,96.237,0,0,1,3-10v-5h1v-5h1v-6h1v-6h1q0.5-8.5,1-17h1V979h-1q-0.5-6-1-12c-3.874-12.078-8.24-23.882-18-30h-2c-7.228-3.986-17.176-4.846-26-2h-4v1l-10,2v1l-6,2v1h-2v1h-2v1h-2v1h-2v1h-2v1h-2v1h-2v1h-2q-0.5,1-1,2h-2q-0.5,1-1,2h-2v1l-3,1q-0.5,1-1,2h-2l-2,3h-2q-0.5,1-1,2h-2q-0.5,1-1,2h-1q-0.5,1-1,2h-2l-3,4h-2l-3,4-3,1-8,9c-3.09,2.806-5.269,1.185-6,7l6,5v2l7,6v2c1.667,1.33,3.333,2.67,5,4v2c1.667,1.33,3.333,2.67,5,4v2l4,3v2l4,3v2c1,0.67,2,1.33,3,2v2c1,0.67,2,1.33,3,2v2c1,0.67,2,1.33,3,2v2c1,0.67,2,1.33,3,2v2c0.667,0.33,1.333.67,2,1v2c1,0.67,2,1.33,3,2v1h10Q607,1055.505,640,1061Zm-143-53q-4.5,5.5-9,11c-1,.67-2,1.33-3,2v2c-1.666,1.33-3.334,2.67-5,4v2c-1.666,1.33-3.334,2.67-5,4v2l-4,3v2c-1,.67-2,1.33-3,2v2h-1l-2,3h65v-1c-2.7-1.79-3.107-4.35-5-7l-4-3v-2l-4-3v-2c-1.667-1.33-3.333-2.67-5-4v-2c-2-1.67-4-3.33-6-5v-2Q501.5,1012,497,1008Zm342,34h68c11.1,0,23.295-.54,32,2h6v1h4v1h5v1h2v1h4v1c1.333,0.33,2.667.67,4,1v1h2c0.333,0.67.667,1.33,1,2h3c0.333,0.67.667,1.33,1,2,1,0.33,2,.67,3,1v1c1.751,1.44,2.413,2.28,5,3,0.665,2.6,1.58,3.25,3,5h1v2c0.667,0.33,1.333.67,2,1,0.333,1.33.667,2.67,1,4,0.667,0.33,1.333.67,2,1-0.333.67-.667,1.33-1,2,0.667,0.33,1.333.67,2,1v3h1v3h1v5h1q0.5,13.005,1,26c0,16.42,2.2,40.08-2,53v5h-1c-1.047,2.75-.615,5.67-2,8-0.667.33-1.333,0.67-2,1v3c-0.667.33-1.333,0.67-2,1-0.333,1.33-.667,2.67-1,4h-1c-1.423,1.77-2.3,2.39-3,5-4.314,1.14-3.443,3.17-6,5h-2l-2,3h-3v1h-2v1c-1.333.33-2.667,0.67-4,1v1q-5,1.005-10,2v1h-3v1h-6c-15.275,4.49-43.935,1.84-63,2-2.754,7.54-1,24.32-1,34v74H839V1042Zm684,0h62c0.34,3.83,2,4.27,3,7v5h1v4h1v4h1v4h1v4c0.67,0.33,1.33.67,2,1,0.33,2.67.67,5.33,1,8h1v4h1v4h1v4h1v5c0.67,0.33,1.33.67,2,1-0.33,1-.67,2-1,3,0.67,0.33,1.33.67,2,1v4h1v4h1v4h1v4h1c0.33,2.67.67,5.33,1,8,0.67,0.33,1.33.67,2,1v4h1v4h1v4h1v4h1c0.33,2.67.67,5.33,1,8,0.67,0.33,1.33.67,2,1v4h1v4h1v5h1v4h1c0.33,2.67.67,5.33,1,8,0.67,0.33,1.33.67,2,1-0.33,1-.67,2-1,3,0.67,0.33,1.33.67,2,1q1.005,6,2,12h1q1.005,6,2,12c0.67,0.33,1.33.67,2,1v4h1v4h1q1.5,8.505,3,17c0.67,0.33,1.33.67,2,1q1.005,6,2,12h1c0.33,3,.67,6,1,9h1v4c0.67,0.33,1.33.67,2,1,0.33,2.33.67,4.67,1,7h1v4h1v5h1v4h1c1.12,3.16-.07,5.8,2,8V1042h37v277h-63c-0.84-1.13.13-.15-1-1-0.1-2.57-.13-3.49-1-5h-1v-4h-1v-4h-1v-4h-1q-1.005-6-2-12c-0.67-.33-1.33-0.67-2-1v-4h-1v-5h-1v-4h-1v-4h-1v-4h-1v-4c-0.67-.33-1.33-0.67-2-1,0.33-1,.67-2,1-3-0.67-.33-1.33-0.67-2-1-0.33-2.67-.67-5.33-1-8-1.81-5.32-3.72-10.96-4-18h-2q-2.505-12.495-5-25c-0.67-.33-1.33-0.67-2-1v-3h-1v-5h-1v-4h-1c-0.33-3-.67-6-1-9h-1v-4c-0.67-.33-1.33-0.67-2-1,0.33-1,.67-2,1-3-0.67-.33-1.33-0.67-2-1v-4h-1v-4h-1v-4h-1v-4h-1v-4h-1v-4c-0.67-.33-1.33-0.67-2-1-0.33-2.67-.67-5.33-1-8h-1q-1.5-8.505-3-17c-0.67-.33-1.33-0.67-2-1v-4h-1q-1.995-10.005-4-20c-0.67-.33-1.33-0.67-2-1,0.33-1,.67-2,1-3-0.67-.33-1.33-0.67-2-1v-5h-1v-4h-1v-4h-1c-1.11-3.18.06-5.79-2-8v244h-36V1042Zm222,0h144v29H1784v90h95v29h-95v99h105v30H1745V1042Zm160,0h173v30h-67v247h-39V1072h-67v-30ZM445,1074l-1,3h-1v2c-0.667.33-1.333,0.67-2,1v2c-1,.67-2,1.33-3,2-0.333,1.33-.667,2.67-1,4-0.667.33-1.333,0.67-2,1v2c-0.667.33-1.333,0.67-2,1v2c-0.667.33-1.333,0.67-2,1v2h-1v2c-0.667.33-1.333,0.67-2,1-0.333,1.33-.667,2.67-1,4-0.667.33-1.333,0.67-2,1l-1,3h-1l-2,6c-0.667.33-1.333,0.67-2,1l-2,6c-0.667.33-1.333,0.67-2,1-0.333,1.33-.667,2.67-1,4-0.667.33-1.333,0.67-2,1v2h-1v2h-1v2h-1v2h-1c-0.333,1.33-.667,2.67-1,4-0.667.33-1.333,0.67-2,1v2h-1v2h-1v2h-1v2h-1v2c-2.632,4.93-6.471,8.93-7,16,2.757,2.51,3.15,6.54,5,10h1v2h1v2h1v2h1c0.333,1.33.667,2.67,1,4,0.667,0.33,1.333.67,2,1v2h1v2h1v2h1v2h1v2h1v2h1v2c0.667,0.33,1.333.67,2,1,0.333,1.33.667,2.67,1,4,0.667,0.33,1.333.67,2,1l2,6c0.667,0.33,1.333.67,2,1l2,6h1l1,3c0.667,0.33,1.333.67,2,1v2h1v2c0.667,0.33,1.333.67,2,1,0.333,1.33.667,2.67,1,4,0.667,0.33,1.333.67,2,1v2c0.667,0.33,1.333.67,2,1l1,3h1c0.333,1.33.667,2.67,1,4,0.667,0.33,1.333.67,2,1q2.5,4.5,5,9h4v1h19v1h34c8.321,0,19.349.87,26-1,7.321-2.06,17.321,2.34,22-2,2.051-1.75,2.42-3.66,4-6,0.667-.33,1.333-0.67,2-1v-2c0.667-.33,1.333-0.67,2-1,0.333-1.33.667-2.67,1-4h1q0.5-1.5,1-3c0.667-.33,1.333-0.67,2-1,0.333-1.33.667-2.67,1-4h1q0.5-1.5,1-3c0.667-.33,1.333-0.67,2-1,0.333-1.33.667-2.67,1-4,0.667-.33,1.333-0.67,2-1,0.333-1.33.667-2.67,1-4,0.667-.33,1.333-0.67,2-1,0.333-1.33.667-2.67,1-4,0.667-.33,1.333-0.67,2-1q1-3,2-6c0.667-.33,1.333-0.67,2-1,0.333-1.33.667-2.67,1-4h1v-2h1v-2h1v-2c0.667-.33,1.333-0.67,2-1q1-3,2-6l9-15v-3h1a17.773,17.773,0,0,0,2-8c-1.953-1.78-.858-1.88-2-4h-1v-2h-1v-3h-1c-0.333-1.33-.667-2.67-1-4-0.667-.33-1.333-0.67-2-1v-2h-1v-2h-1v-2h-1v-2h-1v-2h-1v-2h-1v-2c-0.667-.33-1.333-0.67-2-1v-2h-1v-2h-1v-2h-1v-2h-1v-2c-0.667-.33-1.333-0.67-2-1v-2h-1v-2c-0.667-.33-1.333-0.67-2-1q-1-3-2-6c-0.667-.33-1.333-0.67-2-1-0.333-1.33-.667-2.67-1-4-0.667-.33-1.333-0.67-2-1-0.333-1.33-.667-2.67-1-4h-1q-0.5-1.5-1-3c-0.667-.33-1.333-0.67-2-1-0.333-1.33-.667-2.67-1-4-0.667-.33-1.333-0.67-2-1v-2c-0.667-.33-1.333-0.67-2-1q-0.5-1.5-1-3h-1c-0.333-1.33-.667-2.67-1-4-0.667-.33-1.333-0.67-2-1v-2c-1-.67-2-1.33-3-2q-0.5-1.5-1-3-11.5-.495-23-1v-1H468v1Q456.5,1073.495,445,1074Zm507,91h2c1.146-23.82,1.144-53.18,0-77h-2c-0.524-5.17-4.251-10.25-8-12-1.667-.33-3.333-0.67-5-1-0.333-.67-0.667-1.33-1-2q-9.5-.495-19-1H878c-2.754,7.54-1,24.32-1,34v75c4.088,1.5,11.356,1,17,1h34v-1h7v-1c2.333-.33,4.667-0.67,7-1C945.351,1173.54,951.06,1173.85,952,1165Zm-541-88v1h-8v1h-6v1h-7c-4.487,1.35-11.516,2.64-16,4-4.1,1.24-7.439-.42-10,2h-1v4h1c0.333,1.67.667,3.33,1,5h1v3h1v3h1v3h1v3q5.5,13.5,11,27c1.139-1.14.4,0,1-2,2.807-2.49,3.091-6.52,5-10h1v-2c0.667-.33,1.333-0.67,2-1l2-6c0.667-.33,1.333-0.67,2-1l2-6c0.667-.33,1.333-0.67,2-1l2-6c0.667-.33,1.333-0.67,2-1,0.333-1.33.667-2.67,1-4,0.667-.33,1.333-0.67,2-1v-2h1v-2c0.667-.33,1.333-0.67,2-1v-2c0.667-.33,1.333-0.67,2-1v-2h1v-2c0.444-.77,3.26-0.99,2-4h-1Zm172,0c0.71,3.54,2.563,4.53,4,7v2c0.667,0.33,1.333.67,2,1v2c0.667,0.33,1.333.67,2,1q1,3,2,6c0.667,0.33,1.333.67,2,1,0.333,1.33.667,2.67,1,4,0.667,0.33,1.333.67,2,1,0.333,1.33.667,2.67,1,4,0.667,0.33,1.333.67,2,1v2h1v2h1v2h1v2c0.667,0.33,1.333.67,2,1v2h1v2h1v2h1v2h1v2c0.667,0.33,1.333.67,2,1v2h1v2h1q0.5,1.5,1,3h1q1.5-4.995,3-10h1q0.5-3,1-6h1v-2h1v-3h1v-3h1v-2h1q1-4.5,2-9h1v-3h1v-2h1v-4h1c0.561-1.71.551-2.65,1-4h-1c-2.5-2.17-6.353-.87-10-2v-1h-5C606.833,1079.89,594.012,1079.06,583,1077ZM338,1236q2.5-9,5-18h1v-2h1q0.5-3,1-6h1v-2h1q0.5-3,1-6h1v-2h1q1-4.5,2-9h1c0.333-1.33.667-2.67,1-4h1v-2h1v-3h1v-2h1v-2h1v-2h1v-3h1c0.876-1.8,3.823-8.39,3-11h-1v-2h-1v-3h-1c-0.333-1.33-.667-2.67-1-4h-1v-3h-1c-0.333-1.33-.667-2.67-1-4h-1v-3h-1v-2h-1c-0.333-1.33-.667-2.67-1-4h-1q-0.5-3-1-6h-1v-2h-1q-1-4.5-2-9h-1v-2h-1q-0.5-3-1-6h-1v-2h-1q-2.5-9-5-18c-3.051.54-5.652,2.16-8,3h-4v1h-3v1h-3v1h-3v1h-3v1h-2v1h-3v1h-2v1h-3v1h-2v1h-3v1h-2v1h-3v1c-2,.67-4,1.33-6,2v1h-2v1c-2,.67-4,1.33-6,2-0.333.67-.667,1.33-1,2h-2v1h-2v1h-2v1h-2v1c-1,.33-2,0.67-3,1-0.333.67-.667,1.33-1,2h-2c-0.333.67-.667,1.33-1,2h-2l-2,3h-2l-5,6h-2c-0.333.67-.667,1.33-1,2h-1v2l-4,3c-3.179,4.46-11.9,18.33-9,28,1.4,4.69,3.434,10.15,6,14,0.667,0.33,1.333.67,2,1v2l4,3v2h1c1,1.33,2,2.67,3,4h2c1.333,1.67,2.667,3.33,4,5h2l2,3h2c0.333,0.67.667,1.33,1,2,1,0.33,2,.67,3,1v1h2c0.333,0.67.667,1.33,1,2,1.333,0.33,2.667.67,4,1,0.333,0.67.667,1.33,1,2h2v1h2v1h2v1h2v1h2v1h2v1c2,0.67,4,1.33,6,2v1h3v1c1.333,0.33,2.667.67,4,1v1h3v1h2v1c2,0.33,4,.67,6,1v1h2v1Q326,1232.495,338,1236Zm319-144q-1.5,6.495-3,13h-1v2h-1v4h-1v2h-1q-0.5,3-1,6h-1v2h-1v3h-1v2h-1q-0.5,3-1,6h-1v2h-1v3h-1v2h-1v3h-1c-0.333,1.33-.667,2.67-1,4h-1v3h-1l-3,9h-1a18.112,18.112,0,0,0-2,8c2.887,2.65,2.225,5.58,4,9h1c0.333,1.33.667,2.67,1,4h1v3h1c0.333,1.33.667,2.67,1,4h1v3h1v2h1c0.333,1.67.667,3.33,1,5h1q0.5,3,1,6h1v2h1v3h1v2h1q0.5,3,1,6h1v2h1v4h1v3h1v2h1c0.667,3.33,1.333,6.67,2,10,7.308-1.23,14.958-4.39,21-7,2-.33,4-0.67,6-1v-1h2v-1h3v-1h2v-1h3v-1h2v-1h3v-1c1.333-.33,2.667-0.67,4-1v-1h2v-1l9-3c0.333-.67.667-1.33,1-2,2-.67,4-1.33,6-2,0.333-.67.667-1.33,1-2,1.333-.33,2.667-0.67,4-1v-1c1-.33,2-0.67,3-1,0.333-.67.667-1.33,1-2h2c0.333-.67.667-1.33,1-2,1-.33,2-0.67,3-1,1-1.33,2-2.67,3-4h2q3-3.495,6-7c0.667-.33,1.333-0.67,2-1v-2l4-3c2.4-3.6,8.34-18.24,6-26h-1v-4h-1v-2h-1q-1-3-2-6c-0.667-.33-1.333-0.67-2-1v-2c-1-.67-2-1.33-3-2v-2c-2-1.67-4-3.33-6-5l-2-3h-2c-1-1.33-2-2.67-3-4h-2l-2-3h-2c-0.333-.67-0.667-1.33-1-2h-2c-0.333-.67-0.667-1.33-1-2-1.333-.33-2.667-0.67-4-1-0.333-.67-0.667-1.33-1-2h-2v-1h-2v-1h-2v-1h-2v-1h-2c-0.333-.67-0.667-1.33-1-2h-3v-1h-2v-1c-2-.67-4-1.33-6-2v-1h-3v-1h-2v-1h-3v-1h-2v-1Q673,1097.005,657,1092Zm-169,21h19v1h4v1c2,0.33,4,.67,6,1v1c2,0.67,4,1.33,6,2v1h2c0.333,0.67.667,1.33,1,2h2l2,3h2c1,1.33,2,2.67,3,4h1v2l4,3v2c0.667,0.33,1.333.67,2,1v2h1c0.333,1.33.667,2.67,1,4h1q1,4.5,2,9h1v6h1c1.689,6.01-.74,14.17-2,18v4h-1v2h-1l-3,9c-0.667.33-1.333,0.67-2,1v2l-4,3v2l-4,3v1h-2l-2,3q-8,4.005-16,8c-4.8,1.61-23.3,1.67-28,0v-1c-2-.33-4-0.67-6-1v-1c-1.333-.33-2.667-0.67-4-1v-1h-2c-0.333-.67-0.667-1.33-1-2h-2c-0.333-.67-0.667-1.33-1-2h-2q-3-3.495-6-7l-4-3v-2c-0.667-.33-1.333-0.67-2-1v-2c-0.667-.33-1.333-0.67-2-1v-3c-0.667-.33-1.333-0.67-2-1v-3h-1v-3h-1v-4h-1v-8h-1v-6h1v-8h1v-4h1v-3h1v-3c0.667-.33,1.333-0.67,2-1l2-6c1-.67,2-1.33,3-2v-2q6-5.505,12-11h2c0.333-.67.667-1.33,1-2Zm661,28c0.83,3.54,3.65,6.12,5,9v3c0.67,0.33,1.33.67,2,1-0.33.67-.67,1.33-1,2,0.67,0.33,1.33.67,2,1v4h1v5h1v9c1.54,5.21,1,14.18,1,21v38H1052c-0.12,16.58-2.04,36.38,5,46q5.505,3.495,11,7h4v1h8c5.81,1.62,15.56,1,23,1h43v30h-46c-8.02,0-18.64.81-25-1h-9v-1h-5v-1h-5v-1h-3c-0.33-.67-0.67-1.33-1-2h-4v-1c-1.33-.33-2.67-0.67-4-1v-1h-3v-1h-2c-0.33-.67-0.67-1.33-1-2-5.43-3.63-12.42-6.66-14-14h-2c-0.32-1.59-1.3-6.61-2-8-0.67-.33-1.33-0.67-2-1v-3h-1v-4h-1v-5h-1q-0.5-28.5-1-57c0-9.79-1.27-22.94,1-31v-17h1v-6h1v-4h1v-3c0.67-.33,1.33-0.67,2-1v-3h1c0.86-1.73,2.86-8.29,4-9h2v-2q3.495-3,7-6v-1h3c0.33-.67.67-1.33,1-2h2c11.62-7.56,27.69-9,47-9,7.13,0,16.49-.58,22,1h7v1h4v1h4v1c1.33,0.33,2.67.67,4,1v1h3v1h2c0.33,0.67.67,1.33,1,2h2c0.67,1,1.33,2,2,3h3c0.33,0.67.67,1.33,1,2,1,0.67,2,1.33,3,2v2h1C1147.38,1140.49,1146.52,1140.29,1149,1141Zm198,93H1239v38h1c0.33,1.67.67,3.33,1,5h2c1.67,2.33,3.33,4.67,5,7,1.67,0.33,3.33.67,5,1v1h2v1h3v1q12.495,0.495,25,1h50v30h-46c-8.02,0-18.65.81-25-1q-7.5-.495-15-1v-1h-4c-0.33-.67-0.67-1.33-1-2h-4v-1h-3v-1h-2v-1h-3v-1h-2v-1h-2c-0.33-.67-0.67-1.33-1-2h-3c-1.67-2-3.33-4-5-6h-1c-0.33-.67-0.67-1.33-1-2h-2c-1.33-2.67-2.67-5.33-4-8-0.67-.33-1.33-0.67-2-1q-2.505-9-5-18v-17c-0.67-.33-1.33-0.67-2-1v-70c0.67-.33,1.33-0.67,2-1v-16h1v-6h1v-4h1v-3h1v-3h1v-2c0.67-.33,1.33-0.67,2-1,0.67-2,1.33-4,2-6,0.67-.33,1.33-0.67,2-1v-2h1c0.33-.67.67-1.33,1-2h2c1.33-1.67,2.67-3.33,4-5h2c0.33-.67.67-1.33,1-2h3v-1h2c0.33-.67.67-1.33,1-2h2v-1h4v-1h3v-1h4c12.72-4.13,45.12-5.24,59-1h5v1h3v1h3v1h2v1h2c0.33,0.67.67,1.33,1,2h2v1h3c0.33,0.67.67,1.33,1,2,1,0.33,2,.67,3,1,0.67,1,1.33,2,2,3h2c0.33,1,.67,2,1,3,1,0.67,2,1.33,3,2v2c0.67,0.33,1.33.67,2,1v2c0.67,0.33,1.33.67,2,1v2h1v2h1v3h1v3h1c0.33,3,.67,6,1,9,0.67,0.33,1.33.67,2,1v7h-1v1c0.67,0.33,1.33.67,2,1v58Zm46-113h36v10a7.851,7.851,0,0,0,4-2v-1h2c0.33-.67.67-1.33,1-2q6-1.995,12-4h5c10.22-3.07,29.63-.92,42-1v32h-42c-2.37.71-4.4,1.8-8,2-1.69,2.61-4.96,3.67-7,6h-1v2c-0.67.33-1.33,0.67-2,1-0.33,1.33-.67,2.67-1,4-0.67.33-1.33,0.67-2,1,0.33,0.67.67,1.33,1,2-0.67.33-1.33,0.67-2,1v5c-2.83,9.04-1,26.87-1,38v104h-37V1121Zm-319,30v1h-6v1l-9,3c-0.66,1.21-1.61,1.41-2,2v2c-0.67.33-1.33,0.67-2,1-0.33,2-.67,4-1,6-0.67.33-1.33,0.67-2,1v35c5.58,2.04,15.74,1,23,1h47c2.89-7.83,1.05-25.94,1-36h-1v-3c-0.67-.33-1.33-0.67-2-1v-2c-0.67-.33-1.33-0.67-2-1v-2c-1-.67-2-1.33-3-2v-1h-3c-0.33-.67-0.67-1.33-1-2h-2v-1h-2v-1C1099.76,1149.25,1083.3,1150.94,1074,1151Zm165,53h70c0.27-14.95,2.51-41.05-6-47-12.84-8.97-53.16-9.7-61,4C1236.86,1166.14,1238.91,1193.14,1239,1204Zm-876,39q24.5,4.005,49,8c-0.243-2.25-.1-2.64-1-4h-1v-2h-1v-2c-0.667-.33-1.333-0.67-2-1v-2c-0.667-.33-1.333-0.67-2-1v-2c-0.667-.33-1.333-0.67-2-1-0.333-1.33-.667-2.67-1-4h-1v-2c-0.667-.33-1.333-0.67-2-1-0.333-1.33-.667-2.67-1-4-0.667-.33-1.333-0.67-2-1l-2-6c-0.667-.33-1.333-0.67-2-1l-2-6c-0.667-.33-1.333-0.67-2-1q-3.5-7.995-7-16c-1.135.84-.145-0.13-1,1h-1c-0.333,1.67-.667,3.33-1,5h-1v3h-1v2h-1v3h-1v2h-1q-0.5,3-1,6h-1v2h-1v3h-1v3h-1v3h-1v3C365.209,1234.48,363.269,1236.37,363,1243Zm251-48q-1,3-2,6h-1v2c-0.667.33-1.333,0.67-2,1v2h-1v2h-1v2h-1v2h-1v2c-0.667.33-1.333,0.67-2,1q-1,3-2,6c-0.667.33-1.333,0.67-2,1-0.333,1.33-.667,2.67-1,4-0.667.33-1.333,0.67-2,1q-1,3-2,6c-0.667.33-1.333,0.67-2,1v2h-1v2c-0.667.33-1.333,0.67-2,1v2c-0.667.33-1.333,0.67-2,1v2c-1.448,2.5-3.159,3.48-4,7a47.107,47.107,0,0,0,9-2h7v-1h6v-1h6v-1h6c4.537-1.39,11.481-2.24,16-4q-8.5-23.505-17-47h-2Zm-259,72c-0.278,4.88-1.859,8.38-3,12v5h-1v4h-1v6h-1q-0.5,7.005-1,14h-1v11c-3.758,13.66.08,39.23,4,49v3h1l2,6h1c0.333,1.33.667,2.67,1,4,6.9,10.42,21.962,16.89,38,12,2.666-.33,5.334-0.67,8-1q11.5-4.995,23-10c0.333-.67.667-1.33,1-2,1.333-.33,2.667-0.67,4-1,0.333-.67.667-1.33,1-2,1.333-.33,2.667-0.67,4-1v-1c1-.33,2-0.67,3-1,0.333-.67.667-1.33,1-2h2l2-3h2c0.333-.67.667-1.33,1-2h2l2-3h2l2-3c1-.33,2-0.67,3-1l5-6h2l5-6c4.147-3.01,8.426-5.52,11-10-2-1.67-4-3.33-6-5v-2c-2-1.67-4-3.33-6-5v-2c-2-1.67-4-3.33-6-5v-2c-1.666-1.33-3.334-2.67-5-4v-2l-4-3v-2l-4-3v-2c-1-.67-2-1.33-3-2v-2c-1-.67-2-1.33-3-2v-2c-1-.67-2-1.33-3-2v-2c-1-.67-2-1.33-3-2v-2c-0.667-.33-1.333-0.67-2-1v-2l-4-3v-1h-9c-3.124-2.64-12.21-.62-17-2Zm285,0q-12,1.995-24,4v1h-7c-12.64,3.78-29.36,5.74-45,6-0.675,1.26-1.568,1.36-2,2v2c-1,.67-2,1.33-3,2v2c-1,.67-2,1.33-3,2v2c-0.667.33-1.333,0.67-2,1v2l-4,3v2c-1,.67-2,1.33-3,2v2l-4,3q-0.5,1.5-1,3c-0.667.33-1.333,0.67-2,1v2c-0.667.33-1.333,0.67-2,1l-2,3h-1v2c-1.667,1.33-3.333,2.67-5,4v2l-7,6v2h-1c-1,1.33-2,2.67-3,4-1,.67-2,1.33-3,2v3q6,4.995,12,10l2,3h2c1.333,1.67,2.667,3.33,4,5h2c1,1.33,2,2.67,3,4h2c1,1.33,2,2.67,3,4h2c0.333,0.67.667,1.33,1,2h2l2,3h2c0.333,0.67.667,1.33,1,2,1,0.33,2,.67,3,1v1h2c0.333,0.67.667,1.33,1,2,1,0.33,2,.67,3,1v1h2v1h2v1h2v1h2c0.333,0.67.667,1.33,1,2h3c0.333,0.67.667,1.33,1,2h2v1h3v1c1.333,0.33,2.667.67,4,1v1h3v1h3v1h4v1h4v1h7v1h7v-1h7c20.58-6.76,27-31.36,27-59,0-10.09.238-20.28-2-28l-2-20C643.174,1280.99,641.238,1273.34,640,1267Zm-175,14,2,3h1v2c1,0.67,2,1.33,3,2v2l4,3v2c1.666,1.33,3.334,2.67,5,4v2l4,3v2l7,6v2h1l5,6c1.135-.84.145,0.13,1-1,5.985-3.5,9.981-10.43,14-16,1.667-1.33,3.333-2.67,5-4v-2l4-3v-2l4-3v-2c0.667-.33,1.333-0.67,2-1,1-1.67,2-3.33,3-5H465Z" transform="translate(-210.438 -909)"/>
</svg>
